<?xml version="1.0" encoding="utf-8"?>
<!-- Generator: Adobe Illustrator 19.0.0, SVG Export Plug-In . SVG Version: 6.00 Build 0)  -->
<svg version="1.1" id="Layer_1" xmlns="http://www.w3.org/2000/svg" xmlns:xlink="http://www.w3.org/1999/xlink" x="0px" y="0px"
	 viewBox="0 0 600 50" style="enable-background:new 0 0 600 50;" xml:space="preserve">
<style type="text/css">
	.st0{fill:#CEB219;}
</style>
<path id="XMLID_6_" class="st0" d="M574.7,9.1c-9,0-16.3,7.9-16.7,15.9H44.1c-0.5-8-7.8-15.9-16.7-15.9c-9.3,0-16.8,7.6-16.8,16.8
	s7.5,16.9,16.8,16.9c9,0,16.3-6.8,16.7-15.8h513.8c0.5,9,7.8,15.8,16.7,15.8c9.3,0,16.8-7.6,16.8-16.9S583.9,9.1,574.7,9.1z
	 M27.3,41.1c-8.3,0-15.1-6.8-15.1-15.1S19,10.9,27.3,10.9S42.4,17.7,42.4,26S35.6,41.1,27.3,41.1z M574.7,41.1
	c-8.3,0-15.1-6.8-15.1-15.1s6.8-15.1,15.1-15.1c8.3,0,15.1,6.8,15.1,15.1S583,41.1,574.7,41.1z"/>
</svg>
